<svg width="216" height="28" viewBox="0 0 216 28" fill="none" xmlns="http://www.w3.org/2000/svg">
<g id="Frame" clip-path="url(#clip0_340_52)">
<g id="text-0">
<path id="Vector" d="M12.1891 2.75843L11.1306 3.97478C9.75881 2.95484 8.40506 2.44488 7.06931 2.44488C6.19081 2.44488 5.43472 2.65571 4.80105 3.07738C4.17097 3.49905 3.69212 4.00902 3.36448 4.60729C3.04045 5.20555 2.78662 5.9624 2.603 6.87782C2.41577 7.79324 2.30056 8.58612 2.25736 9.25647C2.21415 9.92321 2.19255 10.7053 2.19255 11.6027C2.19255 12.4821 2.35457 13.4804 2.6786 14.5976C3.00624 15.7149 3.5553 16.7582 4.32579 17.7277C5.09988 18.6936 5.99638 19.1765 7.0153 19.1765C8.12423 19.1765 9.82182 18.5963 12.1081 17.4358C12.3349 17.771 12.6337 18.326 13.0046 19.1008C10.7903 20.6325 8.8119 21.3984 7.06931 21.3984C5.94598 21.3984 4.91806 21.0542 3.98555 20.3658C3.05305 19.6811 2.31856 18.8107 1.7821 17.7547C1.24564 16.6988 0.833393 15.5941 0.54536 14.4408C0.253727 13.2876 0.10791 12.1919 0.10791 11.154C0.10791 10.0115 0.19612 8.89787 0.37254 7.81306C0.548961 6.73185 0.847795 5.64524 1.26904 4.55323C1.69029 3.46481 2.32756 2.58543 3.18086 1.91509C4.03416 1.24834 5.04947 0.914972 6.22681 0.914972C7.24573 0.914972 8.30065 1.08977 9.39157 1.43936C10.4825 1.79255 11.415 2.23224 12.1891 2.75843ZM16.245 27.9937L14.6086 27.0693C15.3322 25.8223 16.6086 23.4473 18.4376 19.9442C17.0118 18.6756 15.9209 16.7582 15.1648 14.1922C14.4087 11.6225 13.9515 9.05284 13.7931 6.48318L15.3214 6.55886C15.4115 6.98413 15.6005 7.94821 15.8885 9.45108C16.1801 10.9576 16.4142 12.0712 16.5906 12.792C16.767 13.5128 17.0784 14.4138 17.5249 15.495C17.975 16.5798 18.4898 17.4916 19.0695 18.2305C21.5106 13.5308 22.7311 9.67633 22.7311 6.66698V6.37505C23.6456 6.51561 24.3315 6.6832 24.7887 6.87782C24.5079 8.72668 24.0686 10.6098 23.471 12.5271C22.8733 14.4444 22.1262 16.3762 21.2297 18.3224C20.3332 20.2649 19.5375 21.8975 18.8426 23.2202C18.1478 24.5393 17.2819 26.1305 16.245 27.9937ZM32.6736 8.64559L32.9113 9.86194C32.5404 9.9124 31.9247 9.97367 31.0642 10.0457C30.2037 10.1178 29.5629 10.1881 29.1416 10.2566C29.1416 14.7796 29.1938 18.0611 29.2982 20.1009C29.0858 20.7893 28.7348 21.1335 28.2451 21.1335C28.0147 21.1335 27.7987 21.0362 27.5971 20.8416C27.3954 20.647 27.2586 20.4001 27.1866 20.1009C27.1866 19.5748 27.2172 18.1404 27.2784 15.7978C27.3432 13.4587 27.3756 11.6477 27.3756 10.3647L25.3666 10.2836C25.3342 9.93042 25.318 9.34116 25.318 8.51584C25.4908 8.55188 25.8238 8.59513 26.3171 8.64559C26.8104 8.69965 27.1452 8.73569 27.3216 8.75371C27.372 8.18788 27.3972 7.38598 27.3972 6.34803C27.3972 4.34419 27.5646 2.97286 27.8995 2.23404C28.2343 1.49522 29.0354 1.12581 30.3028 1.12581C31.6529 1.12581 32.76 1.37989 33.6241 1.88806L33.4621 2.83952C33.2353 2.83952 32.8807 2.81789 32.3982 2.77464C31.9121 2.7314 31.5467 2.70977 31.3019 2.70977C30.5818 2.70977 30.0363 2.86655 29.6655 3.1801C29.2982 3.49725 29.1146 4.10453 29.1146 5.00193C29.1146 5.28664 29.1182 5.59118 29.1254 5.91554C29.1362 6.23991 29.1416 6.44714 29.1416 6.53724C29.1416 7.18596 29.1326 7.89775 29.1146 8.67261C29.3955 8.67261 29.7861 8.68163 30.2866 8.69965C30.787 8.71767 31.1525 8.72668 31.3829 8.72668C31.8221 8.72668 32.2524 8.69965 32.6736 8.64559ZM43.3777 10.1268L42.2165 10.0457C41.8493 9.06185 41.2264 8.5699 40.3479 8.5699C39.9591 8.5699 39.5504 8.6564 39.122 8.82939C38.6899 9.00599 38.3335 9.18619 38.0526 9.36999C37.7718 9.5574 37.4028 9.8259 36.9455 10.1755C36.9455 10.4242 36.9401 11.2261 36.9293 12.5812C36.9221 13.9363 36.9311 15.441 36.9563 17.0952C36.9851 18.7494 37.0157 19.6378 37.0481 19.7604C36.8897 20.2866 36.5819 20.5496 36.1246 20.5496C35.8078 20.5496 35.5054 20.4235 35.2173 20.1712C34.9257 19.9153 34.7457 19.6018 34.6773 19.2306C35.0121 13.5831 35.3109 9.31593 35.5738 6.42912L36.7619 6.69401L36.8375 8.46178C38.0688 7.44184 39.1238 6.93188 40.0023 6.93188C40.9708 6.93188 41.7845 7.15172 42.4433 7.59141C43.1022 8.0311 43.4317 8.67262 43.4317 9.51595C43.4317 9.78265 43.4137 9.98628 43.3777 10.1268ZM44.4848 14.5598C44.4848 13.857 44.5586 13.0731 44.7062 12.2082C44.8574 11.3468 45.0825 10.4404 45.3813 9.48892C45.6801 8.54107 46.1284 7.74999 46.726 7.11568C47.3237 6.48137 48.0186 6.16422 48.8107 6.16422C50.4993 6.16422 51.853 6.92647 52.8719 8.45097C53.8909 9.97186 54.4003 11.6658 54.4003 13.5326C54.4003 14.3219 54.3175 15.1094 54.1519 15.8951C53.9827 16.6771 53.7216 17.4466 53.3688 18.2034C53.0196 18.9603 52.5155 19.5892 51.8566 20.0901C51.1977 20.5911 50.4273 20.8776 49.5452 20.9497C47.9286 20.7371 46.681 20.0451 45.8025 18.8738C44.924 17.7061 44.4848 16.2681 44.4848 14.5598ZM48.9673 7.53735C48.3516 7.60943 47.8332 8.17346 47.4119 9.22944C46.9907 10.2854 46.7188 11.309 46.5964 12.3001C46.4704 13.2948 46.4074 14.1705 46.4074 14.9274C46.4074 15.9149 46.7116 16.8267 47.3201 17.6628C47.925 18.499 48.6054 18.917 49.3615 18.917C49.9088 18.917 50.4021 18.7044 50.8413 18.2791C51.2806 17.8574 51.628 17.3349 51.8836 16.7114C52.1357 16.0879 52.3283 15.459 52.4615 14.8247C52.5947 14.1904 52.6613 13.6263 52.6613 13.1326C52.6613 11.691 52.3355 10.4332 51.6838 9.35918C51.0321 8.28518 50.1266 7.67791 48.9673 7.53735ZM69.4302 6.51021L71.1962 6.74807C70.8614 8.13562 70.3339 10.2512 69.6139 13.0947C68.8938 15.9383 68.3321 18.2485 67.9289 20.0253C67.2412 20.1478 66.6507 20.2091 66.1575 20.2091C65.7182 20.2091 65.315 20.173 64.9477 20.1009L63.4679 14.9274L62.2042 20.128C61.5201 20.2505 60.9225 20.3118 60.4112 20.3118C59.99 20.3118 59.5939 20.2775 59.2231 20.2091C58.9602 19.2936 58.5426 17.8466 57.9701 15.868C57.4013 13.8858 56.9188 12.1649 56.5228 10.7053C56.1267 9.24565 55.7703 7.8473 55.4534 6.51021L57.1924 6.63995L60.6218 17.6196C61.2015 15.9329 61.8082 13.848 62.4418 11.3648C61.8982 9.34296 61.4769 7.68872 61.1781 6.40209L62.9171 6.53724L66.3465 17.5169C66.6273 16.6699 66.9261 15.7185 67.243 14.6625C67.5562 13.6101 67.81 12.7091 68.0045 11.9595C68.1989 11.2098 68.4545 10.2332 68.7714 9.02941C69.0882 7.82567 69.3078 6.98594 69.4302 6.51021ZM73.1999 8.78074L72.6706 7.43464C73.1279 6.97693 73.7075 6.61112 74.4096 6.33721C75.1153 6.06331 75.8102 5.92635 76.4942 5.92635C79.4646 5.92635 80.9498 8.49602 80.9498 13.6353C80.9498 14.3381 80.9101 15.3761 80.8309 16.7492C80.7517 18.1223 80.7121 19.1531 80.7121 19.8415C80.5717 20.3857 80.2999 20.6578 79.8966 20.6578C79.5798 20.6578 79.29 20.4992 79.0271 20.182C78.7643 19.8649 78.6329 19.5135 78.6329 19.1279C78.6329 19.0053 78.6419 18.917 78.6599 18.863C77.569 19.9189 76.4078 20.4469 75.1765 20.4469C74.244 20.4469 73.4303 20.1082 72.7354 19.4306C72.0441 18.753 71.6985 17.9295 71.6985 16.96C71.6985 15.3238 72.3358 13.8462 73.6103 12.5271C74.8849 11.208 76.3304 10.5485 77.947 10.5485C78.0154 10.5485 78.0856 10.5521 78.1576 10.5593C78.226 10.5701 78.3088 10.5845 78.4061 10.6026C78.5033 10.617 78.5789 10.6242 78.6329 10.6242C78.4925 8.5663 77.6752 7.53735 76.181 7.53735C75.2989 7.53735 74.3052 7.95181 73.1999 8.78074ZM78.7085 17.0411C78.7445 15.8086 78.7625 14.8751 78.7625 14.2408C78.7625 13.7146 78.7445 12.9758 78.7085 12.0243H78.4979C77.2521 12.0424 76.1144 12.5091 75.0847 13.4245C74.055 14.3399 73.5401 15.4482 73.5401 16.7492C73.5401 17.3114 73.7129 17.7601 74.0586 18.0953C74.4006 18.4305 74.8165 18.5981 75.3061 18.5981C76.0802 18.5981 77.2143 18.0791 78.7085 17.0411ZM94.1381 20.3658H91.8158C91.2361 19.8216 90.6205 19.1963 89.9688 18.49C89.3171 17.7872 88.786 17.1889 88.3756 16.6952C87.9615 16.205 87.3891 15.5058 86.6582 14.5976C85.9309 13.693 85.4179 13.0551 85.119 12.6839L85.4593 19.8144C85.3008 20.3406 84.993 20.6037 84.5358 20.6037C84.2189 20.6037 83.9165 20.4758 83.6284 20.2199C83.3368 19.9676 83.1568 19.6559 83.0884 19.2846C83.1388 17.8755 83.182 14.9544 83.218 10.5215C83.254 6.08493 83.3332 2.81068 83.4556 0.69873L84.6438 0.963627C84.6942 1.84301 84.7554 3.36931 84.8274 5.54253C84.8958 7.71935 84.948 9.16817 84.984 9.88897C85.2828 9.51776 85.8409 8.8348 86.6582 7.84009C87.4755 6.84538 88.039 6.16782 88.3486 5.80742C88.6546 5.44702 89.1029 4.92444 89.6934 4.23968C90.2802 3.55131 90.8203 2.95304 91.3135 2.44488C91.8068 1.93311 92.3342 1.41413 92.8959 0.887943L93.6898 2.17998C93.0561 3.23596 90.6024 6.22729 86.3288 11.154C86.9444 11.8063 88.2154 13.32 90.1416 15.695C92.0642 18.0701 93.3964 19.627 94.1381 20.3658ZM103.314 7.45626L103.049 8.51584C101.342 7.80945 100.014 7.45626 99.0634 7.45626C98.2209 7.45626 97.6287 7.5842 97.2866 7.84009C96.9446 8.09597 96.7736 8.63838 96.7736 9.4673C96.7736 10.134 97.0148 10.6873 97.4972 11.127C97.9797 11.5666 98.5648 11.9144 99.2524 12.1703C99.9365 12.4262 100.626 12.6983 101.321 12.9866C102.016 13.2785 102.604 13.7056 103.087 14.2678C103.569 14.8301 103.811 15.5257 103.811 16.3546C103.811 17.479 103.398 18.4647 102.574 19.3117C101.746 20.155 100.673 20.5857 99.3551 20.6037C98.3901 20.6037 97.4846 20.4019 96.6385 19.9982C95.7961 19.5946 95.1282 19.0846 94.6349 18.4683L95.4018 17.6736C95.6106 17.7637 95.9221 17.9043 96.3361 18.0953C96.7502 18.2899 97.0454 18.4179 97.2218 18.4791C97.3946 18.5404 97.6539 18.6071 97.9995 18.6792C98.3415 18.7476 98.7052 18.7819 99.0904 18.7819C99.9185 18.7819 100.595 18.5981 101.121 18.2305C101.65 17.8593 101.915 17.3403 101.915 16.6735C101.915 16.2338 101.791 15.859 101.542 15.5491C101.297 15.2427 100.973 14.9923 100.57 14.7976C100.163 14.603 99.7187 14.4174 99.2362 14.2408C98.7538 14.0678 98.2713 13.8714 97.7889 13.6516C97.3028 13.4281 96.8582 13.1632 96.4549 12.8569C96.0517 12.5505 95.7258 12.1325 95.4774 11.6027C95.2326 11.0765 95.1102 10.4512 95.1102 9.72679C95.1102 8.67081 95.3964 7.78783 95.9689 7.07784C96.5377 6.36424 97.3406 6.00745 98.3775 6.00745C98.7844 6.00745 99.2416 6.06871 99.7493 6.19125C100.261 6.31379 100.666 6.42912 100.964 6.53724C101.263 6.64175 101.708 6.81294 102.298 7.05081C102.885 7.28867 103.224 7.42382 103.314 7.45626ZM105.998 6.61292L107.213 6.87782C107.353 8.31942 107.476 10.5845 107.58 13.6732C107.688 16.7618 107.758 18.6756 107.791 19.4144C107.632 19.9622 107.325 20.2361 106.867 20.2361C106.554 20.2361 106.252 20.1082 105.96 19.8523C105.668 19.5964 105.488 19.2846 105.42 18.917C105.456 18.1926 105.526 16.3131 105.631 13.2785C105.735 10.244 105.857 8.02209 105.998 6.61292ZM106.37 1.88806C106.846 1.88806 107.24 2.09529 107.553 2.50975C107.87 2.92421 108.028 3.39453 108.028 3.92072C108.028 4.30995 107.937 4.6235 107.753 4.86137C107.569 5.09563 107.319 5.21276 107.002 5.21276C106.509 5.21276 106.122 5.01094 105.841 4.60729C105.56 4.20364 105.42 3.72791 105.42 3.1801C105.42 2.79447 105.503 2.48272 105.668 2.24485C105.838 2.00699 106.072 1.88806 106.37 1.88806ZM120.817 17.6196L121.082 18.7819C120.308 19.063 119.161 19.3765 117.642 19.7225C116.119 20.0649 114.988 20.2361 114.25 20.2361C113.494 20.2361 112.835 19.9856 112.273 19.4847C111.712 18.9801 111.29 18.3368 111.01 17.5547C110.729 16.7726 110.522 15.9978 110.389 15.2301C110.255 14.4661 110.189 13.7146 110.189 12.9758C110.189 8.57531 112.176 6.37505 116.151 6.37505C117.101 6.37505 117.937 6.67959 118.657 7.28867C119.377 7.89415 119.737 8.68163 119.737 9.65111C119.737 10.1773 119.591 10.644 119.3 11.0513C119.011 11.4549 118.66 11.7757 118.246 12.0135C117.832 12.2514 117.305 12.4658 116.664 12.6569C116.023 12.8515 115.456 12.9938 114.963 13.0839C114.473 13.1704 113.885 13.2659 113.197 13.3704C112.513 13.4786 112.037 13.5579 111.771 13.6083C111.789 14.1201 111.82 14.5688 111.863 14.9544C111.91 15.3436 111.998 15.7617 112.128 16.2086C112.261 16.6591 112.437 17.0285 112.657 17.3168C112.876 17.6088 113.179 17.8502 113.564 18.0413C113.953 18.2359 114.41 18.3332 114.936 18.3332C115.57 18.3332 116.344 18.2755 117.258 18.1602C118.173 18.0485 118.986 17.9313 119.699 17.8088C120.408 17.6827 120.781 17.6196 120.817 17.6196ZM111.879 11.9703C114.27 11.2855 116.23 10.5647 117.76 9.80788C117.638 9.22763 117.471 8.80596 117.258 8.54287C117.046 8.27617 116.729 8.14282 116.308 8.14282C115.235 8.14282 114.264 8.51404 113.397 9.25647C112.525 9.99529 112.02 10.8999 111.879 11.9703ZM130.176 6.55886L131.365 6.29937C131.365 6.82556 131.374 7.23822 131.392 7.53735C131.496 11.39 131.548 13.8984 131.548 15.0625C131.548 15.4662 131.557 16.0987 131.575 16.96C131.593 17.825 131.602 18.4773 131.602 18.917C131.602 19.8829 131.572 20.7172 131.51 21.42C131.449 22.1264 131.312 22.8616 131.1 23.6257C130.891 24.3933 130.607 25.0186 130.247 25.5016C129.883 25.9845 129.372 26.3846 128.713 26.7017C128.054 27.0189 127.276 27.1774 126.38 27.1774C125.606 27.1774 124.243 27.0621 122.291 26.8314C122.277 26.6404 122.246 26.4296 122.2 26.1989C122.156 25.9719 122.135 25.7971 122.135 25.6746C122.135 25.4079 122.162 25.1952 122.216 25.0366C122.356 25.0547 122.905 25.1267 123.863 25.2529C124.821 25.3754 125.528 25.4367 125.985 25.4367C127.199 25.4367 128.131 25.0673 128.783 24.3285C129.431 23.5896 129.764 22.2075 129.782 20.182C128.922 20.6758 128.016 20.9227 127.066 20.9227C126.274 20.9227 125.579 20.7587 124.981 20.4307C124.383 20.1064 123.91 19.6937 123.561 19.1927C123.208 18.6918 122.922 18.0845 122.702 17.3709C122.482 16.6573 122.333 15.9671 122.254 15.3004C122.174 14.6301 122.135 13.9165 122.135 13.1596C122.135 11.2603 122.553 9.66732 123.388 8.38069C124.223 7.09766 125.494 6.45615 127.201 6.45615C128.202 6.45615 129.184 6.76429 130.149 7.38058C130.167 7.20398 130.176 6.93007 130.176 6.55886ZM129.863 17.6196L129.939 9.09429C129.834 8.77713 129.505 8.52665 128.95 8.34285C128.4 8.15904 127.789 8.06714 127.12 8.06714C126.169 8.06714 125.431 8.50142 124.905 9.36999C124.376 10.2422 124.111 11.3035 124.111 12.5541C124.111 13.2065 124.147 13.8444 124.219 14.4679C124.288 15.0914 124.428 15.7779 124.641 16.5276C124.853 17.2736 125.195 17.8755 125.667 18.3332C126.142 18.7909 126.733 19.0197 127.438 19.0197C127.964 19.0197 128.446 18.8918 128.886 18.6359C129.325 18.3836 129.651 18.0449 129.863 17.6196ZM134.713 8.78074L134.184 7.43464C134.641 6.97693 135.222 6.61112 135.928 6.33721C136.63 6.06331 137.323 5.92635 138.007 5.92635C140.981 5.92635 142.468 8.49602 142.468 13.6353C142.468 14.3381 142.429 15.3761 142.349 16.7492C142.27 18.1223 142.231 19.1531 142.231 19.8415C142.087 20.3857 141.813 20.6578 141.41 20.6578C141.093 20.6578 140.803 20.4992 140.54 20.182C140.277 19.8649 140.146 19.5135 140.146 19.1279C140.146 19.0053 140.155 18.917 140.173 18.863C139.082 19.9189 137.921 20.4469 136.69 20.4469C135.757 20.4469 134.945 20.1082 134.254 19.4306C133.559 18.753 133.212 17.9295 133.212 16.96C133.212 15.3238 133.849 13.8462 135.123 12.5271C136.398 11.208 137.843 10.5485 139.46 10.5485C139.528 10.5485 139.599 10.5521 139.671 10.5593C139.739 10.5701 139.822 10.5845 139.919 10.6026C140.016 10.617 140.092 10.6242 140.146 10.6242C140.005 8.5663 139.188 7.53735 137.694 7.53735C136.816 7.53735 135.822 7.95181 134.713 8.78074ZM140.222 17.0411C140.258 15.8086 140.276 14.8751 140.276 14.2408C140.276 13.7146 140.258 12.9758 140.222 12.0243H140.011C138.765 12.0424 137.627 12.5091 136.598 13.4245C135.568 14.3399 135.053 15.4482 135.053 16.7492C135.053 17.3114 135.226 17.7601 135.572 18.0953C135.914 18.4305 136.331 18.5981 136.825 18.5981C137.595 18.5981 138.727 18.0791 140.222 17.0411ZM155.781 14.5868L153.221 14.1111L152.935 12.9217C153.284 12.8713 154.11 12.7884 155.413 12.6731C156.713 12.5577 157.53 12.4658 157.865 12.3974V20.7875L155.808 21.2092C155.79 21.0362 155.781 20.6181 155.781 19.955C155.781 19.2955 155.772 18.8702 155.754 18.6792C155.754 18.7116 155.692 18.8125 155.57 18.9819C155.448 19.1477 155.255 19.3549 154.992 19.6036C154.726 19.8487 154.418 20.0847 154.069 20.3118C153.716 20.5424 153.268 20.7371 152.724 20.8956C152.177 21.0542 151.604 21.1335 151.007 21.1335C146.736 21.1335 144.601 17.807 144.601 11.154C144.601 10.0115 144.69 8.89787 144.866 7.81306C145.039 6.73185 145.338 5.64524 145.763 4.55323C146.184 3.46481 146.821 2.58543 147.674 1.91509C148.524 1.24834 149.539 0.914972 150.72 0.914972C151.739 0.914972 152.794 1.08977 153.885 1.43936C154.972 1.79255 155.903 2.23224 156.677 2.75843L155.624 3.97478C154.252 2.95484 152.899 2.44488 151.563 2.44488C150.684 2.44488 149.928 2.65571 149.295 3.07738C148.661 3.49905 148.182 4.00902 147.858 4.60729C147.53 5.20555 147.275 5.9624 147.091 6.87782C146.907 7.79324 146.794 8.58612 146.751 9.25647C146.708 9.92321 146.686 10.7053 146.686 11.6027C146.686 13.7507 147.08 15.5058 147.869 16.8681C148.661 18.2341 149.691 18.917 150.958 18.917C151.502 18.917 152.033 18.8287 152.551 18.6521C153.07 18.4755 153.514 18.2647 153.885 18.0196C154.252 17.771 154.585 17.5151 154.884 17.252C155.183 16.9889 155.408 16.769 155.559 16.5924C155.707 16.4158 155.781 16.3095 155.781 16.2735V14.5868ZM159.999 14.5598C159.999 13.857 160.074 13.0731 160.225 12.2082C160.373 11.3468 160.596 10.4404 160.895 9.48892C161.194 8.54107 161.642 7.74999 162.24 7.11568C162.837 6.48137 163.532 6.16422 164.324 6.16422C166.013 6.16422 167.367 6.92647 168.386 8.45097C169.405 9.97186 169.914 11.6658 169.914 13.5326C169.914 14.3219 169.831 15.1094 169.666 15.8951C169.496 16.6771 169.237 17.4466 168.888 18.2034C168.535 18.9603 168.029 19.5892 167.37 20.0901C166.712 20.5911 165.943 20.8776 165.064 20.9497C163.444 20.7371 162.195 20.0451 161.316 18.8738C160.438 17.7061 159.999 16.2681 159.999 14.5598ZM164.481 7.53735C163.865 7.60943 163.347 8.17346 162.926 9.22944C162.504 10.2854 162.233 11.309 162.11 12.3001C161.988 13.2948 161.927 14.1705 161.927 14.9274C161.927 15.9149 162.229 16.8267 162.834 17.6628C163.439 18.499 164.119 18.917 164.875 18.917C165.423 18.917 165.916 18.7044 166.355 18.2791C166.794 17.8574 167.142 17.3349 167.397 16.7114C167.653 16.0879 167.846 15.459 167.975 14.8247C168.109 14.1904 168.175 13.6263 168.175 13.1326C168.175 11.691 167.849 10.4332 167.198 9.35918C166.546 8.28518 165.64 7.67791 164.481 7.53735ZM180.17 7.45626L179.905 8.51584C178.202 7.80945 176.876 7.45626 175.925 7.45626C175.083 7.45626 174.488 7.5842 174.143 7.84009C173.801 8.09597 173.63 8.63838 173.63 9.4673C173.63 10.134 173.873 10.6873 174.359 11.127C174.841 11.5666 175.425 11.9144 176.109 12.1703C176.796 12.4262 177.488 12.6983 178.182 12.9866C178.874 13.2785 179.462 13.7056 179.948 14.2678C180.431 14.8301 180.672 15.5257 180.672 16.3546C180.672 17.479 180.258 18.4647 179.43 19.3117C178.606 20.155 177.534 20.5857 176.217 20.6037C175.248 20.6037 174.343 20.4019 173.5 19.9982C172.654 19.5946 171.986 19.0846 171.496 18.4683L172.258 17.6736C172.47 17.7637 172.784 17.9043 173.198 18.0953C173.608 18.2899 173.902 18.4179 174.078 18.4791C174.254 18.5404 174.514 18.6071 174.856 18.6792C175.201 18.7476 175.567 18.7819 175.952 18.7819C176.777 18.7819 177.453 18.5981 177.983 18.2305C178.508 17.8593 178.771 17.3403 178.771 16.6735C178.771 16.2338 178.649 15.859 178.404 15.5491C178.159 15.2427 177.833 14.9923 177.426 14.7976C177.023 14.603 176.58 14.4174 176.098 14.2408C175.615 14.0678 175.131 13.8714 174.645 13.6516C174.163 13.4281 173.72 13.1632 173.316 12.8569C172.91 12.5505 172.584 12.1325 172.339 11.6027C172.094 11.0765 171.972 10.4512 171.972 9.72679C171.972 8.67081 172.256 7.78783 172.825 7.07784C173.398 6.36424 174.202 6.00745 175.239 6.00745C175.642 6.00745 176.1 6.06871 176.611 6.19125C177.122 6.31379 177.527 6.42912 177.826 6.53724C178.125 6.64175 178.568 6.81294 179.155 7.05081C179.745 7.28867 180.083 7.42382 180.17 7.45626ZM191.166 7.08865L191.036 8.22392C190.298 8.1194 189.664 8.06714 189.135 8.06714C187.922 8.06714 186.919 8.43115 186.127 9.15916C185.338 9.89077 184.798 10.7539 184.507 11.7486C184.219 12.7434 184.075 13.848 184.075 15.0625C184.075 15.6248 184.109 16.1257 184.177 16.5654C184.249 17.0051 184.377 17.4358 184.561 17.8574C184.744 18.2791 185.034 18.6089 185.43 18.8468C185.826 19.0846 186.314 19.2035 186.894 19.2035C187.668 19.2035 188.652 19.054 189.848 18.7548C190.215 18.6143 190.505 18.544 190.717 18.544C191.139 18.544 191.394 19.0378 191.484 20.0253C189.936 20.5154 188.503 20.7605 187.185 20.7605C185.27 20.7605 183.974 20.2902 183.297 19.3495C182.62 18.4089 182.282 16.8826 182.282 14.7706C182.282 13.538 182.364 12.4604 182.53 11.5378C182.696 10.6152 182.991 9.75202 183.416 8.94832C183.837 8.14823 184.447 7.53735 185.246 7.11568C186.046 6.69401 187.025 6.48318 188.184 6.48318C189.488 6.48318 190.481 6.685 191.166 7.08865ZM193.407 6.61292L194.617 6.87782C194.761 8.31942 194.885 10.5845 194.989 13.6732C195.094 16.7618 195.164 18.6756 195.2 19.4144C195.041 19.9622 194.734 20.2361 194.276 20.2361C193.959 20.2361 193.657 20.1082 193.369 19.8523C193.077 19.5964 192.896 19.2846 192.824 18.917C192.86 18.1926 192.93 16.3131 193.034 13.2785C193.142 10.244 193.266 8.02209 193.407 6.61292ZM193.774 1.88806C194.249 1.88806 194.645 2.09529 194.962 2.50975C195.279 2.92421 195.437 3.39453 195.437 3.92072C195.437 4.30995 195.346 4.6235 195.162 4.86137C194.975 5.09563 194.723 5.21276 194.406 5.21276C193.916 5.21276 193.531 5.01094 193.25 4.60729C192.966 4.20364 192.824 3.72791 192.824 3.1801C192.824 2.79447 192.908 2.48272 193.077 2.24485C193.243 2.00699 193.475 1.88806 193.774 1.88806ZM197.992 16.8844C198.467 16.8844 198.867 17.0898 199.191 17.5007C199.518 17.9151 199.682 18.3872 199.682 18.917C199.682 19.3027 199.589 19.6144 199.401 19.8523C199.218 20.0901 198.968 20.2091 198.651 20.2091C198.161 20.2091 197.77 20.0072 197.479 19.6036C197.187 19.1963 197.041 18.7206 197.041 18.1764C197.041 17.7872 197.126 17.4754 197.295 17.2412C197.461 17.0033 197.693 16.8844 197.992 16.8844ZM201.286 26.5449L201.605 6.29937L203.079 6.55886C203.079 6.93007 203.088 7.20398 203.106 7.38058C204.075 6.76429 205.051 6.45615 206.033 6.45615C207.636 6.45615 208.885 7.14271 209.781 8.51584C210.678 9.88897 211.126 11.4459 211.126 13.1866C211.126 14.066 211.06 14.9058 210.926 15.7059C210.793 16.5095 210.561 17.3277 210.23 18.1602C209.895 18.9963 209.38 19.6667 208.685 20.1712C207.99 20.6722 207.151 20.9227 206.168 20.9227C205.236 20.9227 204.339 20.6758 203.479 20.182C203.547 23.2599 203.609 25.5484 203.663 27.0477C203.504 27.5919 203.196 27.864 202.739 27.864C202.422 27.864 202.118 27.7361 201.826 27.4802C201.538 27.2243 201.358 26.9125 201.286 26.5449ZM203.317 9.09429L203.398 17.6196C203.61 18.0449 203.936 18.3836 204.375 18.6359C204.815 18.8918 205.297 19.0197 205.823 19.0197C206.51 19.0197 207.096 18.7999 207.578 18.3602C208.06 17.9205 208.403 17.3349 208.604 16.6033C208.806 15.8752 208.946 15.1941 209.025 14.5598C209.105 13.9255 209.144 13.2569 209.144 12.5541C209.144 9.56281 208.134 8.06714 206.114 8.06714C205.463 8.06714 204.86 8.15904 204.305 8.34285C203.754 8.52665 203.425 8.77713 203.317 9.09429ZM213.259 18.917L213.837 2.07186L215.052 2.33676L215.63 19.4144C215.472 19.9622 215.164 20.2361 214.707 20.2361C214.394 20.2361 214.091 20.1082 213.8 19.8523C213.508 19.5964 213.328 19.2846 213.259 18.917Z" fill="#334155"/>
</g>
</g>
<defs>
<clipPath id="clip0_340_52">
<rect width="215.522" height="27.5467" fill="white" transform="translate(0.10791 0.572754)"/>
</clipPath>
</defs>
</svg>
