<svg width="80" height="39" viewBox="0 0 80 39" fill="none" xmlns="http://www.w3.org/2000/svg">
<g id="icon-0" clip-path="url(#clip0_340_58)">
<path id="Vector" d="M28.7286 28.6447C22.4336 26.0808 19.2348 25.8029 15.8479 25.5087C12.5091 25.2202 9.05216 24.9146 2.51045 22.2896C2.0244 23.0238 1.62302 24.45 1.2998 26.1786C8.02552 27.9332 11.4303 27.7987 14.7146 27.6626C18.0371 27.5257 21.4704 27.3847 28.1872 29.1679C30.4603 29.7718 32.2303 30.3659 33.6379 30.9412C32.3874 30.2493 30.7957 29.4865 28.7286 28.6447Z" fill="#334155"/>
<path id="Vector_2" d="M27.9292 30.9543C21.3607 29.2094 18.1529 29.3406 14.7546 29.4808C11.4085 29.6194 7.94262 29.7563 1.12653 27.9854C0.906712 29.3333 0.729227 30.7929 0.588379 32.202C7.23756 32.9917 10.5341 32.4204 13.7141 31.863C16.9878 31.29 20.3731 30.6976 27.2673 31.5794C29.9638 31.9249 31.9951 32.3454 33.5624 32.8018C32.171 32.2158 30.3513 31.5973 27.9292 30.9543Z" fill="#334155"/>
<path id="Vector_3" d="M13.8876 33.6663C10.6383 34.2343 7.27257 34.817 0.493938 34.0167C0.355532 35.5611 0.260276 36.9881 0.208984 38.0467C7.01937 37.9987 10.2328 37.0028 13.3437 36.0379C16.5197 35.0534 19.8032 34.0355 26.752 34.0355C29.1016 34.0355 30.9644 34.1545 32.4714 34.3509C31.0857 34.0004 29.3532 33.6736 27.1411 33.3908C20.4 32.527 17.2362 33.0803 13.8876 33.6663Z" fill="#334155"/>
<path id="Vector_4" d="M65.0244 27.6835C68.316 27.818 71.7265 27.9549 78.4848 26.188C78.151 24.3079 77.7488 22.8499 77.2807 22.29C70.7039 24.9354 67.2389 25.2394 63.8903 25.5295C60.5034 25.8237 57.3038 26.1 51.0088 28.6663C48.9417 29.509 47.3484 30.2718 46.0986 30.9654C47.5063 30.3892 49.2771 29.7934 51.5526 29.1904C58.2678 27.4056 61.7027 27.5474 65.0244 27.6835Z" fill="#334155"/>
<path id="Vector_5" d="M76.7725 20.6007L69.6454 0C64.487 2.04964 61.7359 2.28761 59.0745 2.51825C56.3536 2.75377 53.7841 2.97626 48.7291 5.03568C41.7184 7.89296 41.3382 9.67773 41.1346 10.6369C41.0361 11.0974 40.9197 11.6125 40.2896 11.9482V35.3582C40.2928 35.3533 40.2993 35.3484 40.3034 35.3419C40.3327 35.2995 40.3588 35.2481 40.3848 35.1919C40.4377 35.0631 40.4776 34.9083 40.5265 34.6826C40.844 33.1903 41.3748 30.6925 50.6334 26.9216C57.0684 24.2974 60.4935 24.0016 63.8063 23.7139C67.0564 23.4327 70.4164 23.1426 76.7725 20.6007Z" fill="#334155"/>
<path id="Vector_6" d="M66.0227 31.884C69.206 32.4414 72.5042 33.0111 79.1639 32.2214C79.0239 30.7626 78.8521 29.3128 78.6486 27.9966C71.8113 29.7765 68.3381 29.6404 64.983 29.501C61.5848 29.3617 58.3778 29.2304 51.8084 30.9753C49.3863 31.6191 47.5675 32.2377 46.1729 32.8253C47.7409 32.3689 49.773 31.9484 52.4695 31.6028C59.3621 30.7186 62.7506 31.3111 66.0227 31.884Z" fill="#334155"/>
<path id="Vector_7" d="M66.3946 36.0598C69.5047 37.0239 72.719 38.0206 79.5293 38.0695C79.4707 36.8389 79.3763 35.451 79.2558 34.037C72.4706 34.8398 69.1009 34.2563 65.8508 33.6874C62.5022 33.1015 59.3392 32.5489 52.5972 33.412C50.3868 33.6956 48.6534 34.0232 47.2686 34.372C48.7747 34.178 50.6367 34.0566 52.9863 34.0566C59.9359 34.0566 63.2194 35.0753 66.3946 36.0598Z" fill="#334155"/>
<path id="Vector_8" d="M39.2125 34.6628C39.2394 34.7883 39.2622 34.8902 39.2866 34.9839V11.9489C38.6565 11.6131 38.54 11.0981 38.4423 10.6376C38.238 9.67839 37.8586 7.89361 30.8471 5.03633C25.792 2.97691 23.2226 2.75442 20.5025 2.5189C17.8402 2.28826 15.0908 2.04948 9.93399 0.00146484L2.9624 20.5778C9.32093 23.1213 12.6818 23.413 15.9343 23.6942C19.2463 23.9819 22.6706 24.2785 29.1065 26.9003C38.365 30.6719 38.8958 33.1706 39.2125 34.6628Z" fill="#334155"/>
</g>
<defs>
<clipPath id="clip0_340_58">
<rect width="79.3204" height="38.0696" fill="white" transform="translate(0.208984)"/>
</clipPath>
</defs>
</svg>
